<?xml version="1.0" standalone="no"?>
<!DOCTYPE svg PUBLIC "-//W3C//DTD SVG 20010904//EN"
 "http://www.w3.org/TR/2001/REC-SVG-20010904/DTD/svg10.dtd">
<svg version="1.0" xmlns="http://www.w3.org/2000/svg"
 width="512.000000pt" height="512.000000pt" viewBox="0 0 512.000000 512.000000"
 preserveAspectRatio="xMidYMid meet">
<metadata>
Created by potrace 1.14, written by Peter Selinger 2001-2017
</metadata>
<g transform="translate(0.000000,512.000000) scale(0.100000,-0.100000)"
fill="#000000" stroke="none">
<path d="M4503 4986 c-38 -32 -169 -112 -258 -158 -217 -112 -515 -211 -852
-283 -89 -19 -164 -35 -167 -35 -4 0 19 -30 50 -67 62 -75 125 -199 144 -282
7 -30 14 -90 15 -135 7 -241 -75 -522 -410 -1416 -108 -289 -202 -541 -209
-560 -69 -194 -260 -692 -263 -684 -7 20 -108 309 -348 994 -275 783 -373
1065 -415 1186 l-28 81 129 129 129 129 -30 30 -30 30 -150 -150 -150 -150
206 -580 c313 -880 570 -1607 620 -1748 l27 -77 -53 -125 c-29 -69 -54 -124
-55 -123 -2 2 -23 62 -48 133 -24 72 -91 261 -147 420 -56 160 -106 301 -110
315 -5 14 -34 97 -65 185 -31 88 -61 171 -65 185 -5 14 -32 90 -60 170 -29 80
-59 165 -67 190 -8 25 -18 54 -23 65 -5 11 -30 81 -55 155 -51 146 -129 370
-220 625 -31 88 -58 168 -60 177 -2 9 -9 26 -15 38 -6 12 -10 26 -8 32 2 6 96
102 208 214 l205 204 -728 0 c-400 0 -727 -2 -727 -4 0 -2 100 -90 223 -195
l223 -191 43 -122 c24 -68 101 -289 173 -493 71 -203 140 -399 153 -435 26
-72 23 -65 265 -755 94 -269 187 -533 205 -585 59 -164 203 -574 209 -597 6
-18 -15 -39 -146 -148 -84 -70 -171 -142 -193 -161 l-40 -33 680 -1 680 0 -30
26 c-16 14 -46 40 -65 57 -20 18 -67 59 -105 91 -39 33 -88 77 -111 98 l-41
39 69 182 c38 100 73 191 78 202 5 11 34 88 65 170 62 163 105 275 164 430 22
55 94 244 161 420 365 959 511 1330 575 1470 7 17 30 68 50 115 213 492 449
856 766 1184 100 103 106 112 92 129 -21 22 -26 22 -60 -7z"/>
<path d="M4630 4782 c-52 -45 -171 -170 -235 -245 -28 -33 -150 -203 -202
-282 -230 -347 -394 -678 -588 -1185 -53 -140 -167 -437 -252 -660 -85 -223
-195 -511 -245 -640 -49 -129 -93 -244 -98 -255 -5 -11 -18 -45 -29 -75 -17
-47 -98 -260 -184 -480 -14 -36 -44 -114 -67 -175 -23 -60 -44 -115 -46 -121
-3 -5 5 -21 17 -35 96 -111 325 -382 327 -390 2 -5 -270 -9 -682 -9 l-687 0
33 -43 33 -44 748 0 c614 0 747 2 743 13 -3 7 -102 126 -221 264 -212 246
-216 251 -206 283 10 34 124 338 140 372 5 11 76 193 156 405 221 579 394
1031 410 1070 8 19 48 123 89 230 150 392 270 667 418 965 209 418 395 694
609 907 l118 118 -15 35 c-8 19 -15 35 -17 35 -1 -1 -31 -26 -67 -58z"/>
</g>
</svg>
